<svg version="1.1" viewBox="0.0 0.0 960.0 720.0" fill="none" stroke="none" stroke-linecap="square" stroke-miterlimit="10" xmlns:xlink="http://www.w3.org/1999/xlink" xmlns="http://www.w3.org/2000/svg"><clipPath id="p.0"><path d="m0 0l960.0 0l0 720.0l-960.0 0l0 -720.0z" clip-rule="nonzero"/></clipPath><g clip-path="url(#p.0)"><path fill="#000000" fill-opacity="0.0" d="m0 0l960.0 0l0 720.0l-960.0 0z" fill-rule="evenodd"/><path fill="#ffffff" d="m652.18805 414.6438l0 0c-75.11072 75.09332 -182.64697 89.3215 -240.18896 31.77951c-57.541992 -57.54196 -43.299713 -165.06415 31.811035 -240.15747l0 0c-18.211334 67.39276 -4.803833 131.18042 36.188965 172.17322c40.992798 40.99283 104.786316 54.406128 172.18896 36.204742z" fill-rule="evenodd"/><path class="moon_white" stroke="#000000" stroke-width="24.0" stroke-linejoin="round" stroke-linecap="butt" d="m652.18805 414.6438l0 0c-75.11072 75.09332 -182.64697 89.3215 -240.18896 31.77951c-57.541992 -57.54196 -43.299713 -165.06415 31.811035 -240.15747l0 0c-18.211334 67.39276 -4.803833 131.18042 36.188965 172.17322c40.992798 40.99283 104.786316 54.406128 172.18896 36.204742z" fill-rule="evenodd"/></g></svg>