<?xml version="1.0" standalone="no"?>
<!DOCTYPE svg PUBLIC "-//W3C//DTD SVG 20010904//EN"
 "http://www.w3.org/TR/2001/REC-SVG-20010904/DTD/svg10.dtd">
<svg version="1.0" xmlns="http://www.w3.org/2000/svg"
 width="653.000000pt" height="653.000000pt" viewBox="0 0 653.000000 653.000000"
 preserveAspectRatio="xMidYMid meet">
<metadata>
Created by potrace 1.14, written by Peter Selinger 2001-2017
</metadata>
<g transform="translate(0.000000,653.000000) scale(0.100000,-0.100000)"
fill="#000000" stroke="none">
<path d="M0 5800 l0 -731 23 12 c12 7 34 21 48 31 17 13 38 18 60 16 29 -2 34
-7 35 -28 0 -15 5 -24 13 -22 7 1 31 -2 53 -8 38 -11 42 -10 69 16 l29 28 28
-27 c15 -15 38 -27 51 -27 18 0 22 -5 19 -27 -3 -24 -11 -30 -63 -46 -87 -27
-152 -27 -198 2 -20 12 -37 28 -37 36 0 9 -12 11 -44 8 -23 -3 -53 0 -65 6
-20 11 -21 9 -21 -23 0 -32 3 -36 38 -44 72 -17 117 -30 157 -46 51 -19 124
-20 149 -1 11 8 37 15 58 15 34 0 38 -3 38 -25 0 -42 26 -92 59 -111 17 -10
31 -22 31 -26 0 -18 54 -29 77 -17 26 14 35 73 10 63 -8 -3 -34 4 -60 15 -42
18 -67 44 -67 70 0 17 79 52 108 49 25 -3 27 -7 33 -63 6 -62 9 -63 15 -7 7
63 18 72 85 72 l61 0 -7 -27 c-3 -16 -15 -37 -26 -49 -10 -11 -19 -26 -19 -33
0 -26 69 -126 100 -144 31 -18 32 -18 45 0 23 30 17 43 -28 62 -38 16 -45 25
-56 64 -14 47 -8 71 24 97 52 43 249 24 340 -32 28 -17 70 -42 95 -56 25 -13
63 -41 85 -61 22 -20 65 -56 96 -79 50 -38 79 -75 79 -102 0 -6 -15 -27 -34
-48 -25 -27 -35 -49 -38 -77 l-3 -40 -55 0 c-44 0 -65 7 -105 31 -28 17 -67
34 -89 38 -51 10 -86 27 -86 41 0 7 20 29 45 50 51 41 52 60 9 105 -21 21 -33
25 -87 25 l-62 0 -6 -55 c-3 -30 -12 -65 -19 -76 -12 -19 -10 -25 19 -53 18
-17 31 -37 28 -44 -6 -20 -116 -29 -150 -12 -44 22 -52 20 -103 -30 -43 -41
-46 -47 -41 -82 9 -52 55 -93 157 -138 47 -20 92 -41 100 -45 8 -4 19 -30 23
-58 11 -68 37 -79 37 -16 0 34 7 54 27 80 l26 35 -16 47 c-10 26 -17 73 -17
104 0 46 4 59 19 68 53 28 135 3 206 -62 l56 -51 29 22 c16 11 33 21 39 21 16
0 57 -56 77 -103 11 -28 30 -52 49 -63 61 -35 115 -85 115 -107 0 -13 16 -55
35 -96 45 -94 46 -111 1 -111 -19 0 -38 4 -41 10 -3 6 -26 10 -51 10 -39 0
-44 3 -44 23 0 12 7 35 15 51 9 16 13 31 11 33 -3 3 -28 0 -56 -6 -28 -6 -64
-11 -80 -11 -34 0 -38 -7 -13 -25 14 -11 15 -17 6 -38 -11 -24 -10 -26 23 -37
19 -7 41 -10 48 -7 7 3 19 1 27 -4 18 -11 2 -39 -32 -56 -13 -6 -41 -19 -62
-29 -32 -16 -40 -17 -58 -6 -31 20 -78 -2 -86 -39 -4 -21 -12 -29 -38 -33 -42
-8 -91 -70 -100 -127 -5 -30 -17 -47 -47 -72 -79 -63 -90 -78 -84 -117 19
-104 19 -129 2 -136 -23 -9 -55 22 -77 74 l-19 44 -115 -7 c-120 -6 -177 -22
-195 -54 -15 -28 -12 -127 4 -159 36 -70 83 -77 141 -22 17 16 44 30 60 32
l30 3 -3 -64 c-3 -73 3 -81 61 -81 26 0 37 -4 37 -15 0 -8 9 -39 20 -68 18
-49 25 -56 58 -64 45 -12 76 -2 113 33 37 36 83 40 173 15 42 -12 88 -21 102
-21 49 0 105 -23 148 -61 24 -21 69 -48 100 -60 66 -24 118 -66 136 -108 8
-21 28 -36 78 -59 37 -16 84 -33 105 -36 20 -4 66 -20 102 -36 51 -23 68 -36
82 -64 16 -34 16 -37 -7 -85 -13 -28 -36 -62 -52 -77 -18 -18 -28 -38 -28 -57
0 -40 -27 -145 -48 -185 -17 -34 -56 -59 -124 -81 -43 -14 -78 -53 -78 -87 0
-37 -184 -243 -279 -312 -69 -50 -104 -87 -127 -137 -13 -27 -24 -60 -24 -71
0 -24 -32 -99 -55 -128 -30 -39 -16 -99 33 -141 32 -28 24 -41 -38 -54 -42 -9
-56 -8 -92 8 -96 42 -123 114 -108 296 11 149 35 303 55 352 21 54 55 266 55
345 l0 66 -66 58 c-47 41 -73 74 -90 111 -12 29 -40 77 -62 107 -38 53 -39 56
-37 136 2 65 6 85 23 103 30 33 52 82 52 117 0 29 -1 30 -49 30 -68 0 -98 13
-156 70 -27 26 -77 63 -110 80 -33 18 -67 38 -75 45 -8 7 -40 15 -71 18 -55 5
-163 51 -201 85 -11 9 -18 29 -18 49 0 36 -4 39 -90 64 -73 22 -129 82 -173
187 -26 61 -47 96 -65 108 -15 10 -39 31 -54 47 l-28 29 0 -1801 0 -1801 3265
0 3265 0 0 810 0 809 -28 15 c-15 8 -36 23 -46 35 -11 12 -31 21 -45 21 -19 1
-36 13 -61 46 -62 82 -95 85 -270 29 -41 -13 -95 -26 -120 -30 -25 -3 -57 -8
-71 -11 -20 -4 -28 1 -37 21 -7 14 -12 38 -12 53 0 15 -11 58 -25 96 -21 60
-23 76 -14 120 17 84 24 91 107 117 64 21 81 31 116 72 51 59 101 92 138 89
21 -2 38 7 65 33 32 31 42 35 89 35 45 0 56 -4 69 -24 8 -13 13 -30 9 -39 -4
-10 7 -24 33 -41 21 -14 41 -26 45 -26 4 0 14 26 24 57 9 32 20 66 25 75 14
28 11 38 -13 38 -38 1 -89 35 -117 76 -21 30 -34 40 -59 42 -20 2 -36 10 -39
20 -3 9 -17 32 -30 50 -29 39 -23 52 22 52 27 0 37 -6 52 -30 12 -21 22 -28
33 -23 20 10 98 10 133 0 l27 -7 0 517 c-1 516 -1 518 -20 482 -20 -37 -31
-44 -135 -74 -38 -11 -69 -28 -88 -48 -22 -24 -32 -29 -45 -21 -33 21 -38 42
-18 78 15 28 30 39 77 55 31 10 82 38 112 61 47 35 55 45 55 74 0 19 14 64 32
100 29 62 31 71 24 136 -4 39 -10 72 -14 75 -3 2 -14 -19 -23 -48 -23 -71
-115 -183 -160 -192 -59 -12 -84 -26 -99 -58 -13 -27 -13 -40 -2 -87 11 -47
10 -58 -2 -77 -8 -13 -20 -23 -27 -23 -6 0 -21 -3 -33 -6 -22 -6 -44 28 -44
69 0 35 -28 67 -58 67 -15 0 -36 7 -46 15 -10 8 -23 12 -27 9 -19 -11 -7 -31
26 -47 47 -22 46 -33 -8 -70 -17 -12 -17 -14 2 -57 26 -61 35 -130 19 -156
-45 -73 -78 -106 -132 -134 -33 -16 -66 -30 -75 -30 -28 0 -58 -28 -64 -58 -7
-33 -33 -48 -53 -31 -10 8 -10 16 -2 35 14 31 5 40 -26 26 -43 -19 -42 -48 3
-97 36 -39 41 -50 41 -93 0 -46 -2 -50 -44 -80 -24 -18 -49 -32 -56 -32 -6 0
-33 18 -59 40 -26 22 -53 40 -59 40 -7 0 -12 -16 -12 -40 0 -31 7 -48 34 -77
36 -41 60 -83 70 -125 6 -24 3 -28 -17 -28 -57 0 -150 148 -167 267 -9 66 -25
93 -56 93 -7 0 -20 21 -30 48 -34 93 -43 112 -53 112 -28 0 -72 -27 -126 -78
-33 -31 -73 -66 -88 -77 -39 -28 -46 -80 -18 -144 26 -61 28 -111 5 -111 -20
0 -43 28 -44 53 0 15 -6 17 -27 13 -46 -9 -70 21 -105 131 -17 54 -33 118 -35
141 -4 37 -8 43 -24 39 -12 -3 -29 5 -48 23 -52 53 -101 80 -145 80 -23 0 -61
5 -85 11 -24 5 -46 8 -48 5 -3 -3 4 -17 16 -32 29 -37 27 -66 -9 -92 -17 -13
-30 -29 -30 -37 0 -16 -100 -79 -161 -100 -24 -9 -69 -28 -99 -43 l-55 -27 73
-3 c83 -3 93 -13 73 -69 -20 -55 -63 -112 -143 -189 -44 -44 -83 -93 -99 -125
-24 -49 -26 -60 -18 -119 24 -191 25 -176 -11 -207 -113 -95 -110 -92 -110
-147 0 -43 -5 -58 -30 -86 -16 -19 -29 -40 -30 -46 0 -16 -93 -155 -116 -176
-31 -27 -171 -52 -215 -39 -47 14 -60 31 -70 90 -4 27 -19 66 -32 88 -14 21
-28 62 -32 92 -4 30 -20 81 -37 115 -25 53 -28 68 -23 116 4 30 11 69 17 86
14 40 -10 133 -54 207 -27 46 -30 60 -29 125 l2 72 -35 0 c-25 0 -42 8 -60 27
l-25 26 -88 -23 c-102 -27 -195 -30 -240 -6 -47 24 -147 120 -181 174 -24 38
-31 62 -37 130 -6 74 -4 91 21 164 22 68 36 91 85 142 62 66 159 194 159 211
0 6 -10 15 -22 20 -12 6 -25 21 -29 35 -13 46 -9 122 7 156 l16 34 79 0 79 0
0 29 c0 18 -11 40 -30 59 -17 18 -30 36 -30 40 0 21 83 72 117 72 10 0 41 19
68 43 28 24 65 53 83 66 21 14 32 31 32 46 0 38 19 77 40 82 11 3 20 12 20 20
0 11 -4 11 -21 3 -11 -7 -33 -9 -47 -5 -91 22 -96 144 -9 201 109 71 177 152
177 209 0 31 11 38 113 74 49 17 97 37 107 44 12 8 43 12 86 10 88 -3 111 -9
119 -32 6 -18 53 -40 131 -60 89 -23 141 -86 98 -118 -24 -17 -13 -16 35 3 40
16 40 16 34 60 -5 41 -4 44 16 44 33 0 61 -18 61 -39 0 -24 9 -31 29 -21 57
29 146 60 162 55 11 -4 44 -1 74 6 52 12 54 13 48 40 -3 16 -3 29 -1 29 19 0
177 -44 200 -56 31 -16 35 -9 13 20 -26 34 -18 73 26 131 47 62 68 68 99 28
20 -25 21 -36 16 -98 -6 -64 -5 -68 9 -51 8 11 15 35 15 53 0 34 28 72 48 65
6 -2 22 4 34 12 12 9 32 16 43 16 11 0 29 6 40 14 11 7 44 17 73 21 40 5 52
11 52 24 0 10 8 25 17 33 18 15 255 78 296 78 14 0 30 13 44 35 33 50 81 57
127 18 23 -21 49 -32 83 -37 36 -4 57 -14 77 -35 l27 -28 -32 -31 c-31 -30
-31 -30 -9 -42 11 -6 53 -14 93 -17 40 -3 77 -10 83 -14 14 -11 45 -12 104 -3
25 3 64 1 88 -5 33 -9 43 -17 48 -39 3 -15 7 -33 10 -40 6 -21 34 -25 53 -8
12 11 32 16 57 14 22 -1 60 -1 87 0 40 2 47 5 47 23 0 14 10 24 30 32 35 13
38 23 9 32 -16 6 -18 9 -8 15 7 5 17 6 21 4 4 -3 8 2 8 10 0 10 -9 16 -25 16
-28 0 -105 36 -105 48 0 20 29 32 77 32 l53 0 0 740 0 740 -3265 0 -3265 0 0
-730z m2447 -337 c23 -13 51 -36 62 -52 21 -29 23 -30 90 -24 88 7 160 -15
161 -49 0 -5 -10 -8 -21 -8 -37 0 -88 -40 -140 -109 l-50 -66 27 -22 c26 -20
27 -24 14 -48 -12 -22 -12 -30 -1 -47 11 -17 9 -28 -11 -73 -12 -29 -32 -56
-43 -61 -16 -7 -20 -19 -21 -64 -2 -75 -1 -72 -29 -102 -19 -20 -46 -31 -122
-48 -82 -19 -104 -28 -133 -56 -20 -19 -60 -43 -90 -53 -52 -18 -56 -23 -92
-93 -21 -40 -42 -86 -46 -102 -10 -38 -55 -53 -89 -31 -12 8 -28 15 -36 15 -7
0 -34 14 -59 30 -35 23 -54 47 -82 103 -49 96 -55 139 -27 177 29 39 27 47
-13 54 -37 7 -39 10 -52 115 -3 29 -15 73 -25 97 -25 55 -83 84 -172 84 -87 0
-131 17 -177 66 -58 63 -53 94 20 109 61 13 88 31 83 57 -7 35 29 60 158 112
95 37 132 47 205 52 49 4 98 12 109 17 44 24 249 46 405 44 138 -2 159 -5 197
-24z m-1076 -12 c30 -5 75 -12 102 -16 31 -4 47 -11 47 -21 0 -8 -4 -14 -9
-14 -22 0 -149 -80 -192 -121 -28 -27 -62 -49 -81 -53 -36 -7 -118 -81 -118
-106 0 -27 -28 -57 -60 -63 -30 -7 -42 -27 -16 -27 20 0 26 -12 19 -39 l-6
-23 -141 7 c-78 4 -148 11 -157 16 -9 5 -22 22 -27 39 -6 16 -18 30 -26 30
-19 0 -22 20 -3 20 12 1 -51 39 -65 40 -5 0 -8 -7 -8 -15 0 -12 -14 -15 -62
-16 -35 -1 -70 -1 -78 0 -23 3 -60 49 -60 75 0 12 -5 27 -11 33 -7 7 -9 19 -5
29 5 13 16 16 57 12 41 -4 57 -12 90 -44 l39 -38 0 27 c0 22 5 27 25 27 33 0
85 -48 99 -90 10 -30 16 -35 50 -38 23 -2 36 0 32 6 -3 5 3 21 14 35 25 32 25
37 -2 37 -45 0 -188 101 -188 133 0 16 49 56 78 63 15 3 45 15 68 25 22 10 52
19 67 19 14 0 38 5 54 11 29 11 100 26 188 39 74 11 224 11 286 1z m3129 -98
c0 -26 -12 -41 -44 -52 -56 -22 -63 14 -8 45 47 27 52 28 52 7z m164 -19 c34
-13 16 -32 -36 -37 -29 -3 -65 -8 -80 -12 -24 -6 -28 -4 -28 14 0 11 1 21 3
22 1 0 22 3 47 6 25 3 47 7 49 9 6 6 27 5 45 -2z m757 -4 c10 -6 19 -19 19
-29 0 -10 9 -26 20 -36 20 -18 25 -41 14 -69 -9 -23 -20 -20 -102 19 -79 38
-89 56 -49 92 36 33 66 40 98 23z m-382 -9 c16 -10 6 -31 -14 -31 -17 0 -28
17 -20 30 8 12 16 12 34 1z m-724 -10 c22 -36 -97 -57 -131 -24 -16 17 -16 18
7 24 36 10 117 10 124 0z m-624 -28 l32 -21 -41 -21 c-23 -12 -50 -21 -61 -21
-34 0 -34 -19 0 -51 29 -27 31 -31 16 -46 -21 -21 -85 -10 -95 18 -7 18 -11
17 -44 -20 -21 -23 -46 -41 -57 -41 -32 0 -131 100 -131 132 0 41 29 58 91 55
44 -2 60 2 84 22 27 21 38 23 102 19 49 -3 81 -11 104 -25z m675 -10 c-10 -10
-19 5 -10 18 6 11 8 11 12 0 2 -7 1 -15 -2 -18z m1234 -58 c33 -17 39 -41 13
-48 -60 -17 -125 -28 -130 -24 -12 13 9 57 35 71 35 19 46 19 82 1z m-5272
-18 c8 -10 7 -22 -6 -48 -15 -30 -21 -34 -52 -31 -43 3 -54 14 -46 45 9 39 81
62 104 34z m4432 -121 c0 -9 -22 -21 -57 -31 -124 -34 -147 -46 -211 -112 -45
-47 -61 -70 -56 -82 4 -9 9 -28 12 -43 4 -26 2 -28 -27 -28 -41 0 -101 46
-101 78 0 22 65 102 120 147 34 28 97 55 129 55 14 0 49 7 76 14 68 19 115 20
115 2z m1633 -130 c6 -16 -2 -28 -14 -20 -12 7 -11 34 0 34 5 0 11 -6 14 -14z
m-2113 -211 c15 -18 5 -35 -20 -35 -23 0 -32 13 -24 34 8 20 28 21 44 1z
m-1754 -124 c5 -6 36 -6 78 -1 71 9 110 0 120 -26 9 -24 -4 -41 -53 -68 -84
-45 -183 -30 -216 34 -27 51 -18 66 41 69 11 0 24 -3 30 -8z m446 -308 c10 -9
18 -28 18 -42 0 -22 14 -48 72 -133 23 -35 23 -40 -6 -67 -30 -28 -99 -45
-126 -31 -18 10 -18 13 -5 57 10 32 11 51 4 58 -11 11 -29 -10 -29 -36 0 -31
-58 -57 -97 -45 -43 14 2 126 50 126 17 0 19 5 14 39 -6 45 -2 53 38 74 38 21
44 21 67 0z m3241 -965 c-18 -18 -36 -29 -39 -25 -10 10 36 57 55 57 11 0 6
-10 -16 -32z m-185 -89 c3 -32 -12 -53 -32 -46 -19 7 -21 48 -4 65 17 17 33 9
36 -19z m-4928 -20 c67 -30 115 -70 99 -80 -26 -16 -64 -9 -109 21 -35 23 -56
30 -96 30 -60 0 -70 7 -47 32 22 25 95 23 153 -3z m179 -69 c19 -5 42 -17 53
-27 10 -9 33 -17 50 -17 17 -1 33 -7 36 -14 3 -10 -18 -11 -105 -6 -59 4 -108
7 -109 8 -4 4 28 66 34 66 4 0 22 -4 41 -10z m-140 -49 c9 -6 10 -11 2 -15
-14 -9 -51 2 -51 15 0 11 30 12 49 0z m4888 -11 c21 0 24 -4 19 -20 -3 -11 -9
-29 -12 -39 -4 -15 2 -23 25 -36 48 -24 85 -95 51 -95 -5 0 -23 15 -39 32 -27
29 -33 31 -50 21 -16 -10 -21 -9 -34 10 -14 22 -29 122 -19 132 3 3 12 3 20 0
7 -3 25 -5 39 -5z m-67 -220 c0 -31 -16 -41 -26 -15 -5 13 11 45 22 45 2 0 4
-13 4 -30z m177 -27 c17 -68 -2 -95 -45 -64 -17 11 -35 21 -40 21 -27 0 -19
21 15 44 48 33 61 33 70 -1z m-203 -64 c21 -25 24 -34 15 -51 -8 -15 -8 -26 1
-43 11 -20 9 -28 -14 -58 -14 -18 -26 -42 -26 -53 -1 -46 -36 -60 -105 -39
-68 19 -92 41 -100 90 l-6 40 93 72 c51 39 98 72 105 72 6 1 23 -13 37 -30z
m-429 -93 c41 -36 81 -66 89 -66 24 0 56 -50 56 -86 0 -30 4 -34 38 -43 20 -6
50 -11 65 -11 15 0 47 -10 70 -22 34 -17 66 -22 162 -26 66 -3 133 -10 148
-17 l29 -12 -32 -23 c-31 -22 -34 -22 -60 -6 -36 21 -60 20 -76 -1 -12 -17
-17 -17 -101 6 -48 13 -124 27 -168 32 l-79 9 -76 73 c-41 41 -84 83 -96 93
-11 10 -35 42 -53 71 -17 28 -39 57 -47 63 -7 7 -14 19 -14 28 0 11 8 13 35 9
23 -4 58 -27 110 -71z m685 -21 c10 -18 11 -33 4 -53 -15 -43 -29 -32 -32 26
-3 57 7 66 28 27z m-91 1 c10 -11 7 -17 -11 -30 -12 -9 -31 -16 -41 -16 -12 0
-16 -4 -10 -12 12 -20 12 -92 0 -100 -6 -4 -18 -3 -27 2 -11 6 -20 3 -29 -11
-10 -17 -15 -18 -28 -8 -21 18 -13 111 14 147 29 39 109 56 132 28z m126 -121
c0 -5 -21 -11 -47 -13 -40 -3 -47 -1 -42 13 5 12 17 15 48 13 22 -2 41 -7 41
-13z m-1951 -278 c-1 -99 -62 -275 -103 -296 -26 -14 -59 6 -81 49 -19 37 -19
42 -5 70 8 16 15 45 15 64 0 47 32 98 93 146 46 37 52 39 66 25 9 -9 15 -32
15 -58z"/>
<path d="M888 5053 c12 -2 30 -2 40 0 9 3 -1 5 -23 4 -22 0 -30 -2 -17 -4z"/>
<path d="M0 4791 c0 -32 17 -41 83 -41 42 0 45 7 16 44 -16 20 -29 26 -60 26
-36 0 -39 -2 -39 -29z"/>
<path d="M3890 4592 c0 -6 11 -24 24 -39 23 -26 26 -27 38 -11 7 9 24 18 37
20 40 5 35 24 -6 24 -21 0 -50 3 -65 8 -18 5 -28 4 -28 -2z"/>
<path d="M3560 4521 c-25 -26 -51 -64 -58 -85 -12 -33 -11 -39 7 -65 26 -37
26 -39 -4 -63 -14 -11 -25 -28 -25 -38 0 -23 -46 -68 -78 -77 -16 -4 -31 2
-48 18 l-24 22 0 -30 c0 -28 3 -31 46 -37 46 -6 70 -3 131 15 28 9 34 18 48
65 9 30 25 64 35 74 25 25 25 28 -5 52 -37 29 -33 69 14 143 20 31 26 55 14
55 -5 -1 -28 -23 -53 -49z"/>
<path d="M6487 4252 c-45 -46 -49 -83 -12 -100 51 -23 55 -18 55 63 0 41 -1
75 -3 75 -2 0 -20 -17 -40 -38z"/>
<path d="M3782 3860 c-23 -25 -47 -94 -38 -109 10 -16 62 -14 97 4 26 14 35
14 81 0 60 -18 114 -20 123 -4 15 23 -88 79 -144 79 -37 0 -71 19 -71 41 0 16
-29 10 -48 -11z"/>
<path d="M4253 3870 c-13 -5 -23 -15 -24 -22 -3 -34 5 -65 22 -90 11 -15 23
-50 26 -78 5 -43 10 -53 34 -65 18 -10 30 -11 34 -5 10 16 -14 113 -41 169
-27 58 -30 81 -10 81 8 0 18 5 21 10 8 12 -32 12 -62 0z"/>
<path d="M3247 3804 c-3 -4 -24 -6 -46 -6 -39 1 -43 -2 -113 -90 -40 -50 -86
-99 -101 -108 -44 -27 -6 -34 56 -10 69 27 286 41 288 19 1 -8 2 -32 3 -54 1
-36 4 -40 42 -55 23 -8 47 -20 55 -27 8 -6 31 -14 52 -18 29 -6 37 -4 37 8 0
8 7 20 15 27 13 11 38 10 136 -5 85 -13 130 -16 156 -9 43 11 66 40 43 54 -8
5 -17 7 -22 4 -4 -2 -12 4 -17 15 -9 17 -25 19 -130 22 -141 5 -141 5 -176
105 -15 44 -34 77 -52 91 -37 30 -41 21 -8 -22 25 -33 26 -39 14 -68 -7 -18
-19 -40 -27 -49 -17 -20 -68 -24 -92 -8 -16 11 -11 18 36 46 25 15 11 33 -68
93 -72 54 -71 54 -81 45z m41 -36 c19 -19 15 -95 -4 -102 -25 -9 -44 12 -44
49 0 60 20 81 48 53z"/>
<path d="M4250 3391 c0 -22 47 -86 73 -100 21 -11 32 -12 52 -3 29 13 25 32
-7 32 -11 0 -42 18 -69 41 -27 22 -49 36 -49 30z"/>
<path d="M3910 3283 c0 -3 11 -25 25 -48 13 -23 34 -66 45 -96 27 -68 77 -146
101 -160 17 -9 18 -7 9 15 -17 47 -61 128 -91 169 -16 22 -29 46 -29 54 0 16
-40 73 -52 73 -4 0 -8 -3 -8 -7z"/>
</g>
</svg>
